# xmcd
#
# Track frame offsets: 
#        150
#        20740
#        59613
#        89684
#        119581
#        128951
#        163813
#        187766
#        243061
#
# Disc length: 3652 seconds
#
# Revision: 0
# Processed by: cddbd v1.5.2PL0 Copyright (c) Steve Scherf et al.
# Submitted via: ExactAudioCopy v0.99pb5
#
DISCID=7c0e4209
DTITLE=Buddy Guy - 2002-07-12
DYEAR=1900
DGENRE=
TTITLE0=01 i've Got My Mojo Working
TTITLE1=02 Five Long Years
TTITLE2=03 Damn Right I've Got The Blues
TTITLE3=04 Hooche Coochie Man
TTITLE4=05 Boom Boom
TTITLE5=06 Drowning On Dry Land
TTITLE6=07 Feels Like Rain
TTITLE7=08 Tramp
TTITLE8=09 Done Got Old
EXTD=
EXTT0=
EXTT1=
EXTT2=
EXTT3=
EXTT4=
EXTT5=
EXTT6=
EXTT7=
EXTT8=
PLAYORDER=
